<?xml version="1.0" encoding="UTF-8"?> <svg xmlns="http://www.w3.org/2000/svg" width="20" height="20" viewBox="0 0 20 20" fill="none"> <g clip-path="url(#clip0_426_29)"> <path d="M9.9999 0.399902C4.6979 0.399902 0.399902 4.6979 0.399902 9.9999C0.399902 15.3019 4.6979 19.5999 9.9999 19.5999C15.3019 19.5999 19.5999 15.3019 19.5999 9.9999C19.5999 4.6979 15.3019 0.399902 9.9999 0.399902ZM13.6919 11.2309C13.6919 11.2309 14.5409 12.0689 14.7499 12.4579C14.7559 12.4659 14.7589 12.4739 14.7609 12.4779C14.8459 12.6209 14.8659 12.7319 14.8239 12.8149C14.7539 12.9529 14.5139 13.0209 14.4319 13.0269H12.9319C12.8279 13.0269 12.6099 12.9999 12.3459 12.8179C12.1429 12.6759 11.9429 12.4429 11.7479 12.2159C11.4569 11.8779 11.2049 11.5859 10.9509 11.5859C10.9186 11.5858 10.8866 11.5909 10.8559 11.6009C10.6639 11.6629 10.4179 11.9369 10.4179 12.6669C10.4179 12.8949 10.2379 13.0259 10.1109 13.0259H9.4239C9.1899 13.0259 7.9709 12.9439 6.8909 11.8049C5.5689 10.4099 4.3789 7.6119 4.3689 7.5859C4.2939 7.4049 4.4489 7.3079 4.6179 7.3079H6.1329C6.3349 7.3079 6.4009 7.4309 6.4469 7.5399C6.5009 7.6669 6.6989 8.1719 7.0239 8.7399C7.5509 9.6659 7.8739 10.0419 8.1329 10.0419C8.18147 10.0413 8.22917 10.029 8.2719 10.0059C8.6099 9.8179 8.5469 8.6129 8.5319 8.3629C8.5319 8.3159 8.5309 7.8239 8.3579 7.5879C8.2339 7.4169 8.0229 7.3519 7.8949 7.3279C7.94671 7.25641 8.01497 7.19845 8.0939 7.1589C8.3259 7.0429 8.7439 7.0259 9.1589 7.0259H9.3899C9.8399 7.0319 9.9559 7.0609 10.1189 7.1019C10.4489 7.1809 10.4559 7.3939 10.4269 8.1229C10.4179 8.3299 10.4089 8.5639 10.4089 8.8399C10.4089 8.8999 10.4059 8.9639 10.4059 9.0319C10.3959 9.4029 10.3839 9.8239 10.6459 9.9969C10.6801 10.0183 10.7196 10.0298 10.7599 10.0299C10.8509 10.0299 11.1249 10.0299 11.8669 8.7569C12.0957 8.34716 12.2946 7.92138 12.4619 7.4829C12.4769 7.4569 12.5209 7.3769 12.5729 7.3459C12.6113 7.32634 12.6538 7.31639 12.6969 7.3169H14.4779C14.6719 7.3169 14.8049 7.3459 14.8299 7.4209C14.8739 7.5399 14.8219 7.9029 14.0089 9.0039L13.6459 9.4829C12.9089 10.4489 12.9089 10.4979 13.6919 11.2309Z" fill="white"></path> </g> <defs> <clipPath id="clip0_426_29"> <rect width="20" height="20" fill="white"></rect> </clipPath> </defs> </svg> 